<svg width="15" height="15" viewBox="0 0 15 15" fill="none" xmlns="http://www.w3.org/2000/svg">
<path d="M10.3889 4.83114V2.36307C10.3889 1.77644 10.3889 1.48313 10.2624 1.30288C10.1518 1.14539 9.98058 1.03841 9.78782 1.00637C9.56721 0.969712 9.2945 1.09263 8.74909 1.33846L2.34262 4.22599C1.8562 4.44523 1.61299 4.55485 1.43485 4.72487C1.27738 4.87517 1.15717 5.05864 1.08342 5.26125C1 5.49045 1 5.75203 1 6.27521V9.76822M10.75 9.41557H10.7572M1 7.08809L1 11.7431C1 12.5331 1 12.9281 1.15743 13.2298C1.29592 13.4952 1.51689 13.711 1.78868 13.8463C2.09766 14 2.50215 14 3.31111 14H11.6889C12.4979 14 12.9023 14 13.2113 13.8463C13.4831 13.711 13.7041 13.4952 13.8426 13.2298C14 12.9281 14 12.5331 14 11.7431V7.08809C14 6.29809 14 5.90308 13.8426 5.60134C13.7041 5.33592 13.4831 5.12013 13.2113 4.98489C12.9023 4.83114 12.4979 4.83114 11.6889 4.83114L3.31111 4.83114C2.50215 4.83114 2.09766 4.83114 1.78868 4.98489C1.51689 5.12013 1.29592 5.33592 1.15744 5.60134C1 5.90308 1 6.29809 1 7.08809ZM11.1111 9.41557C11.1111 9.61033 10.9494 9.76822 10.75 9.76822C10.5506 9.76822 10.3889 9.61033 10.3889 9.41557C10.3889 9.22081 10.5506 9.06292 10.75 9.06292C10.9494 9.06292 11.1111 9.22081 11.1111 9.41557Z" stroke="white" stroke-width="2" stroke-linecap="round" stroke-linejoin="round"/>
</svg>
