<svg width="16" height="18" viewBox="0 0 16 18" fill="none" xmlns="http://www.w3.org/2000/svg">
<path d="M10.0021 1H5.26562C5.11792 1 5.04407 1 4.97887 1.02186C4.92121 1.04119 4.86869 1.07275 4.82512 1.11423C4.77585 1.16115 4.74282 1.22536 4.67677 1.35378L1.22044 8.07378C1.0627 8.38047 0.983825 8.53381 1.00277 8.65846C1.01931 8.76731 1.08124 8.86472 1.17399 8.92778C1.2802 9 1.45656 9 1.80928 9H6.91607L4.44726 17L14.4814 6.88425C14.8199 6.54296 14.9892 6.37232 14.9991 6.22631C15.0077 6.09956 14.9539 5.97639 14.854 5.89443C14.7391 5.8 14.4952 5.8 14.0075 5.8H8.15048L10.0021 1Z" stroke="black" stroke-width="2" stroke-linecap="round" stroke-linejoin="round"/>
<path d="M10.0021 1H5.26562C5.11792 1 5.04407 1 4.97887 1.02186C4.92121 1.04119 4.86869 1.07275 4.82512 1.11423C4.77585 1.16115 4.74282 1.22536 4.67677 1.35378L1.22044 8.07378C1.0627 8.38047 0.983825 8.53381 1.00277 8.65846C1.01931 8.76731 1.08124 8.86472 1.17399 8.92778C1.2802 9 1.45656 9 1.80928 9H6.91607L4.44726 17L14.4814 6.88425C14.8199 6.54296 14.9892 6.37232 14.9991 6.22631C15.0077 6.09956 14.9539 5.97639 14.854 5.89443C14.7391 5.8 14.4952 5.8 14.0075 5.8H8.15048L10.0021 1Z" stroke="url(#paint0_linear_142_107)" stroke-width="2" stroke-linecap="round" stroke-linejoin="round"/>
<defs>
<linearGradient id="paint0_linear_142_107" x1="15" y1="9.25482" x2="0.929411" y2="10.554" gradientUnits="userSpaceOnUse">
<stop stop-color="#F64F14"/>
<stop offset="1" stop-color="#945EFF"/>
</linearGradient>
</defs>
</svg>
